<?xml version="1.0" encoding="UTF-8" standalone="no"?>
<svg
   xmlns:dc="http://purl.org/dc/elements/1.1/"
   xmlns:cc="http://creativecommons.org/ns#"
   xmlns:rdf="http://www.w3.org/1999/02/22-rdf-syntax-ns#"
   xmlns:svg="http://www.w3.org/2000/svg"
   xmlns="http://www.w3.org/2000/svg"
   xmlns:sodipodi="http://sodipodi.sourceforge.net/DTD/sodipodi-0.dtd"
   xmlns:inkscape="http://www.inkscape.org/namespaces/inkscape"
   version="1.1"
   id="Capa_1"
   x="0px"
   y="0px"
   width="534"
   height="534"
   viewBox="0 0 534.00003 534.00003"
   xml:space="preserve"
   sodipodi:docname="adult-man-avatar-with-short-curly-hair-and-mustache.svg"
   inkscape:version="1.0.2 (e86c870879, 2021-01-15, custom)"><metadata
   id="metadata51"><rdf:RDF><cc:Work
       rdf:about=""><dc:format>image/svg+xml</dc:format><dc:type
         rdf:resource="http://purl.org/dc/dcmitype/StillImage" /><dc:title></dc:title></cc:Work></rdf:RDF></metadata><defs
   id="defs49" /><sodipodi:namedview
   pagecolor="#ffffff"
   bordercolor="#666666"
   borderopacity="1"
   objecttolerance="10"
   gridtolerance="10"
   guidetolerance="10"
   inkscape:pageopacity="0"
   inkscape:pageshadow="2"
   inkscape:window-width="802"
   inkscape:window-height="480"
   id="namedview47"
   showgrid="false"
   inkscape:zoom="0.46857659"
   inkscape:cx="267.28049"
   inkscape:cy="267.28049"
   inkscape:window-x="62"
   inkscape:window-y="0"
   inkscape:window-maximized="0"
   inkscape:current-layer="Capa_1" />
<g
   id="g14">
	<g
   id="g12">
		<g
   id="g8">
			<path
   d="m 114.23,195.561 c 4.8,19.3 17.4,34.2 32.3,39.3 17.4,57.2 62.3,116.7 122.9,116.7 60.601,0 105.3,-59.3 122.8,-116.7 14.9,-5.2 27.4,-20.2 32.301,-39.3 6.898,-27.4 -3.9,-53.1 -24.5,-59.4 0,-1.1 0,-2.2 0.199,-3.2 1.1,-5.8 7.6,-11.3 7.6,-17.5 0,-6.2 -6.4,-11.6 -7.6,-17.5 -1.1,-5.9 2.699,-13.4 0.4,-19 -2.301,-5.6 -10.201,-8.3 -13.4,-13.4 -3.1,-5 -2.1,-13.4 -6.199,-18 -3.9,-4.5 -12.4,-4.5 -17,-8.5 -4.602,-3.8 -5.9,-12.2 -11.201,-15.5 -5,-3.2 -13.199,-1 -18.699,-3.6 -5.4,-2.6 -8.801,-10.3 -14.701,-12.2 -5.6,-1.9 -13.1,2.1 -19,0.9 -5.799,-1.2 -10.898,-8.1 -16.999,-8.6 -5.899,-0.7 -12.3,4.9 -18.5,4.9 -6.2,0 -12.6,-5.5 -18.5,-4.9 -6.2,0.7 -11.2,7.4 -17,8.6 -6,1.3 -13.4,-2.8 -19,-0.9 -5.8,1.9 -9.3,9.6 -14.7,12.2 -5.6,2.6 -13.7,0.4 -18.7,3.6 -5.2,3.2 -6.6,11.6 -11.2,15.5 -4.7,3.9 -13.1,4 -17,8.5 -4,4.6 -3,13 -6.2,18 -3.2,5.2 -11.2,7.8 -13.4,13.4 -2.2,5.6 1.6,13.1 0.4,19 -1.1,5.8 -7.6,11.3 -7.6,17.5 0,6.2 6.4,11.6 7.6,17.5 0.4,2.6 0.1,5.4 -0.3,8.2 -14.3,10.3 -20.8,31.7 -15.101,54.4 z m 290.401,-4.9 c -3.9,15.5 -14,24.6 -22,25.8 l -6.701,0.9 -1.799,6.5 c -14.5,53.4 -55.201,107.5 -104.801,107.5 -49.6,0 -90.2,-54.1 -104.799,-107.6 l -1.8,-6.5 -6.7,-0.9 c -8,-1.1 -18.1,-10.3 -22,-25.8 -2.9,-11.5 -1,-23.2 3.9,-29.8 2,-2.7 4.4,-4.7 7.3,-5.4 0.7,-0.1 1.3,-0.2 2.2,-0.2 0.6,0 1.1,0 1.7,0.1 l 9.5,0.9 1.5,-9.5 c 9.7,-64.8 53.6,-108.3 109.2,-108.3 55.6,0 99.6,43.6 109.301,108.4 l 1.5,9.5 9.5,-0.9 c 1.5,-0.1 2.799,-0.1 3.9,0.1 1.1,0.2 2.1,0.8 3.1,1.3 7.899,4.9 11.598,19.4 7.999,33.9 z"
   id="path2" />
			<path
   d="m 224.031,245.861 c -16.1,16.1 -14.4,43.9 -14.4,43.9 0,0 27.8,1.7 43.9,-14.4 16.1,-16.1 14.4,-43.899 14.4,-43.899 0,0 -27.801,-1.701 -43.9,14.399 z"
   id="path4" />
			<path
   d="m 268.23,231.461 c 0,0 -1.7,27.8 14.4,43.899 16.1,16.101 43.9,14.4 43.9,14.4 0,0 1.699,-27.8 -14.4,-43.9 -15.999,-16.099 -43.9,-14.399 -43.9,-14.399 z"
   id="path6" />
		</g>
		<path
   d="m 384.23,305.761 c -12.801,21.6 -27.4,39.899 -46.801,49.8 -40.199,20.6 -69.999,37.2 -69.999,37.2 l -0.1,-0.1 v -0.4 l -0.4,0.2 -0.4,-0.2 v 0.4 l -0.1,0.1 c 0,0 -29.9,-16.7 -70,-37.2 -19.5,-10 -34.2,-28.2 -46.8,-49.8 -59.5,24.2 -100.9,79.7 -100.9,128.2 0,51.1 0,100.6 0,100.6 h 218.1 0.9 218.1 c 0,0 0,-49.5 0,-100.6 -0.5,-48.4 -42.1,-104 -101.6,-128.2 z"
   id="path10" />
	</g>
</g>
<g
   id="g16">
</g>
<g
   id="g18">
</g>
<g
   id="g20">
</g>
<g
   id="g22">
</g>
<g
   id="g24">
</g>
<g
   id="g26">
</g>
<g
   id="g28">
</g>
<g
   id="g30">
</g>
<g
   id="g32">
</g>
<g
   id="g34">
</g>
<g
   id="g36">
</g>
<g
   id="g38">
</g>
<g
   id="g40">
</g>
<g
   id="g42">
</g>
<g
   id="g44">
</g>
</svg>
