<?xml version="1.0" encoding="UTF-8" standalone="no"?>
<svg
   xmlns:dc="http://purl.org/dc/elements/1.1/"
   xmlns:cc="http://creativecommons.org/ns#"
   xmlns:rdf="http://www.w3.org/1999/02/22-rdf-syntax-ns#"
   xmlns:svg="http://www.w3.org/2000/svg"
   xmlns="http://www.w3.org/2000/svg"
   xmlns:sodipodi="http://sodipodi.sourceforge.net/DTD/sodipodi-0.dtd"
   xmlns:inkscape="http://www.inkscape.org/namespaces/inkscape"
   version="1.1"
   id="Capa_1"
   x="0px"
   y="0px"
   width="534"
   height="534"
   viewBox="0 0 534 534"
   xml:space="preserve"
   sodipodi:docname="female-avatar-image.svg"
   inkscape:version="1.0.2 (e86c870879, 2021-01-15, custom)"><metadata
   id="metadata1430"><rdf:RDF><cc:Work
       rdf:about=""><dc:format>image/svg+xml</dc:format><dc:type
         rdf:resource="http://purl.org/dc/dcmitype/StillImage" /><dc:title></dc:title></cc:Work></rdf:RDF></metadata><defs
   id="defs1428" /><sodipodi:namedview
   pagecolor="#ffffff"
   bordercolor="#666666"
   borderopacity="1"
   objecttolerance="10"
   gridtolerance="10"
   guidetolerance="10"
   inkscape:pageopacity="0"
   inkscape:pageshadow="2"
   inkscape:window-width="1858"
   inkscape:window-height="1057"
   id="namedview1426"
   showgrid="false"
   inkscape:zoom="1.1807349"
   inkscape:cx="225.68247"
   inkscape:cy="303.82141"
   inkscape:window-x="54"
   inkscape:window-y="-8"
   inkscape:window-maximized="1"
   inkscape:current-layer="g1393" />
<g
   id="g1393">
	<path
   d="m 152.95,167.29386 c -0.3,0.1 -0.7,0.1 -1,0.2 -18.9,4.7 -28.9,27.8 -22.6,52.4 4.2,16.8 15.2,29.9 28.3,34.4 15.1,50.2 54.3,102.2 107.3,102.2 53,0 92.2,-52 107.5,-102.1 13.1,-4.5 24,-17.6 28.3,-34.4 6.2,-24.6 -3.7,-47.6 -22.601,-52.4 -0.3,-0.1 -0.699,-0.1 -1,-0.2 -1.899,-9.8 -4.699,-19 -8.1,-27.6 -1.2,-15.9 -12.2,-34.3 -30.3,-47.7 -2.5,-1.9 -5.2,-3.4 -7.7,-4.9 -5.7,-4.5 -11.9,-8.5 -18.4,-11.7 1.4,-4.9 2.2,-10.2 2.2,-15.6 0,-32.1 -26.1,-58.1999997 -58.2,-58.1999997 -32.1,0 -58.2,26.0999997 -58.2,58.1999997 0,8.6 2,16.8 5.3,24.2 -25.399,17.6 -43.799,46.7 -50.799,83.2 z m 230.4,48.3 c -3.399,13.5 -12.2,21.5 -19.2,22.5 l -5.8,0.8 -1.5,5.7 c -12.8,46.7 -48.399,94 -91.7,94 -43.301,0 -79,-47.301 -91.7,-94 l -1.5,-5.7 -5.8,-0.8 c -7,-1 -15.8,-9 -19.2,-22.5 -3.5,-14.2 1,-28.6 9.8,-30.8 0.5,-0.1 1.2,-0.2 1.9,-0.2 0.4,0 1,0 1.4,0.1 l 1.6,0.1 c 1.6,12.5 6.7,24 15.6,32.9 26.4,26.4 17.1,-32.5 51.6,-66.8 10.7,-10.7 24.2,-17.7 37,-23.1 5.2,10.4 13.6,20.8 25.1,29.1 24.101,17.8 52.4,20.9 67.7,8.8 0.9,3.7 1.601,7.6 2.2,11.4 l 1.2,8.4 8.4,-0.8 c 1.199,-0.1 2.399,-0.1 3.399,0.1 8.501,2.2 13.001,16.6 9.501,30.8 z m -14.2,112.8 c -11.3,19.2 -24.3,35.5 -41.699,44.3 -35.7,18.2 -62.2,33.1 -62.2,33.1 l -0.1,-0.1 v -0.3 l -0.3,0.2 -0.3,-0.2 v 0.3 l -0.1,0.1 c 0,0 -26.5,-14.8 -62.2,-33.1 -17.3,-8.9 -30.3,-25.1 -41.7,-44.3 -52.801,21.4 -89.701,70.9 -89.701,113.9 0,45.4 0,89.4 0,89.4 h 193.8 0.8 193.7 c 0,0 0,-44 0,-89.4 -0.3,-43 -37.1,-92.2 -90,-113.9 z"
   id="path1391" />
</g>
<g
   id="g1395">
</g>
<g
   id="g1397">
</g>
<g
   id="g1399">
</g>
<g
   id="g1401">
</g>
<g
   id="g1403">
</g>
<g
   id="g1405">
</g>
<g
   id="g1407">
</g>
<g
   id="g1409">
</g>
<g
   id="g1411">
</g>
<g
   id="g1413">
</g>
<g
   id="g1415">
</g>
<g
   id="g1417">
</g>
<g
   id="g1419">
</g>
<g
   id="g1421">
</g>
<g
   id="g1423">
</g>
</svg>
