<?xml version="1.0" encoding="UTF-8" standalone="no"?>
<svg
   xmlns:dc="http://purl.org/dc/elements/1.1/"
   xmlns:cc="http://creativecommons.org/ns#"
   xmlns:rdf="http://www.w3.org/1999/02/22-rdf-syntax-ns#"
   xmlns:svg="http://www.w3.org/2000/svg"
   xmlns="http://www.w3.org/2000/svg"
   xmlns:sodipodi="http://sodipodi.sourceforge.net/DTD/sodipodi-0.dtd"
   xmlns:inkscape="http://www.inkscape.org/namespaces/inkscape"
   version="1.1"
   id="Capa_1"
   x="0px"
   y="0px"
   viewBox="0 0 534.00001 534.00001"
   xml:space="preserve"
   sodipodi:docname="male-avatar.svg"
   width="534"
   height="534"
   inkscape:version="1.0.2 (e86c870879, 2021-01-15, custom)"><metadata
   id="metadata1122"><rdf:RDF><cc:Work
       rdf:about=""><dc:format>image/svg+xml</dc:format><dc:type
         rdf:resource="http://purl.org/dc/dcmitype/StillImage" /><dc:title></dc:title></cc:Work></rdf:RDF></metadata><defs
   id="defs1120" /><sodipodi:namedview
   pagecolor="#ffffff"
   bordercolor="#666666"
   borderopacity="1"
   objecttolerance="10"
   gridtolerance="10"
   guidetolerance="10"
   inkscape:pageopacity="0"
   inkscape:pageshadow="2"
   inkscape:window-width="1858"
   inkscape:window-height="1057"
   id="namedview1118"
   showgrid="false"
   inkscape:zoom="1.2539063"
   inkscape:cx="218.05512"
   inkscape:cy="266.04251"
   inkscape:window-x="54"
   inkscape:window-y="-8"
   inkscape:window-maximized="1"
   inkscape:current-layer="g1085"
   inkscape:document-rotation="0" />
<g
   id="g1085"
   transform="matrix(21.878787,0,0,16.831198,-74.324368,4.7850467)">
	<path
   d="m 24.676702,19.225 c -0.564948,-1.431 -4.007191,-2.669 -4.007191,-2.669 -1.835864,-0.739 -1.848126,-1.477 -1.848126,-1.477 -3.612166,8.125 -6.351946,0.022 -6.351946,0.022 -0.25138,1.096 -3.9660254,2.384 -3.9660254,2.384 -1.0843504,0.477 -1.5441921,1.191 -1.5441921,1.191 -1.6063803,2.717 -1.7938205,8.769 -1.7938205,8.769 0.021021,1.38 0.5412993,1.524 0.5412993,1.524 3.6944995,1.882 9.4850007,2.216 9.4850007,2.216 5.949038,0.143 10.278557,-1.929 10.278557,-1.929 0.628012,-0.452 0.646406,-0.811 0.646406,-0.811 0.43882,-4.335 -1.439962,-9.22 -1.439962,-9.22 z"
   id="path1051"
   style="stroke-width:0.935889" />
	<path
   d="m 11.55939,10.786 c 0.275905,2.612 2.244903,5.32 4.031717,5.32 2.053083,0 4.004564,-2.846 4.308497,-5.32 0.115618,-0.094 0.305685,-0.321 0.374881,-0.837 0,0 0.43882,-1.791 -0.141894,-1.599 0.203206,-0.691 0.873261,-3.381 -0.427434,-5.053 0,0 -0.607867,-0.949 -2.088995,-1.452 -0.05168,-0.049 -0.104231,-0.099 -0.164667,-0.147 0,0 0.03241,0.043 0.08058,0.118 -0.08409,-0.027 -0.173426,-0.051 -0.261891,-0.075 -0.07971,-0.096 -0.170799,-0.195 -0.272402,-0.3 0,0 0.08934,0.105 0.197075,0.28 -0.04117,-0.01 -0.07708,-0.022 -0.117369,-0.03 -0.06744,-0.117 -0.148901,-0.237 -0.253132,-0.359 0,0 0.04379,0.094 0.100728,0.242 C 16.651806,1.345 16.1035,0.816 16.1035,0.224 c 0,0 -0.342473,0.183 -0.543051,0.517 0.07883,-0.275 0.211089,-0.53 0.426557,-0.741 0,0 -0.225979,0.132 -0.433565,0.418 -0.162039,0.104 -0.530788,0.392 -0.655164,0.904 l -0.11737,-0.068 c 0.05781,-0.145 0.138391,-0.298 0.248753,-0.452 0,0 -0.160288,0.163 -0.30043,0.423 L 14.491866,1.089 c 0.07095,-0.151 0.163791,-0.307 0.289919,-0.459 0,0 -0.127879,0.112 -0.262766,0.301 0.03766,-0.176 0.03153,-0.378 -0.448455,0.222 0,0 -2.16257,1.071 -2.787955,3.288 0,0 -0.367873,1.001 0.119997,3.946 -0.692828,-0.374 -0.220724,1.561 -0.220724,1.561 0.07095,0.517 0.261015,0.743 0.377508,0.838 z m -0.04204,-1.047 z m 3.971281,-9.223 c -0.105107,0.167 -0.196199,0.375 -0.239994,0.63 l -0.07533,-0.033 c 0.05868,-0.214 0.15766,-0.42 0.31532,-0.597 z"
   id="path1053"
   style="stroke-width:0.935889" />
	<g
   id="g1055">
	</g>
	<g
   id="g1057">
	</g>
	<g
   id="g1059">
	</g>
	<g
   id="g1061">
	</g>
	<g
   id="g1063">
	</g>
	<g
   id="g1065">
	</g>
	<g
   id="g1067">
	</g>
	<g
   id="g1069">
	</g>
	<g
   id="g1071">
	</g>
	<g
   id="g1073">
	</g>
	<g
   id="g1075">
	</g>
	<g
   id="g1077">
	</g>
	<g
   id="g1079">
	</g>
	<g
   id="g1081">
	</g>
	<g
   id="g1083">
	</g>
</g>
<g
   id="g1087">
</g>
<g
   id="g1089">
</g>
<g
   id="g1091">
</g>
<g
   id="g1093">
</g>
<g
   id="g1095">
</g>
<g
   id="g1097">
</g>
<g
   id="g1099">
</g>
<g
   id="g1101">
</g>
<g
   id="g1103">
</g>
<g
   id="g1105">
</g>
<g
   id="g1107">
</g>
<g
   id="g1109">
</g>
<g
   id="g1111">
</g>
<g
   id="g1113">
</g>
<g
   id="g1115">
</g>
</svg>
