<?xml version="1.0" encoding="UTF-8" standalone="no"?>
<svg
   xmlns:dc="http://purl.org/dc/elements/1.1/"
   xmlns:cc="http://creativecommons.org/ns#"
   xmlns:rdf="http://www.w3.org/1999/02/22-rdf-syntax-ns#"
   xmlns:svg="http://www.w3.org/2000/svg"
   xmlns="http://www.w3.org/2000/svg"
   xmlns:sodipodi="http://sodipodi.sourceforge.net/DTD/sodipodi-0.dtd"
   xmlns:inkscape="http://www.inkscape.org/namespaces/inkscape"
   version="1.1"
   id="Capa_1"
   x="0px"
   y="0px"
   width="534"
   height="534"
   viewBox="0 0 534 534"
   xml:space="preserve"
   sodipodi:docname="man-avatar-with-bald-head-sunglasses-and-mustache.svg"
   inkscape:version="1.0.2 (e86c870879, 2021-01-15, custom)"><metadata
   id="metadata1093"><rdf:RDF><cc:Work
       rdf:about=""><dc:format>image/svg+xml</dc:format><dc:type
         rdf:resource="http://purl.org/dc/dcmitype/StillImage" /><dc:title></dc:title></cc:Work></rdf:RDF></metadata><defs
   id="defs1091" /><sodipodi:namedview
   pagecolor="#ffffff"
   bordercolor="#666666"
   borderopacity="1"
   objecttolerance="10"
   gridtolerance="10"
   guidetolerance="10"
   inkscape:pageopacity="0"
   inkscape:pageshadow="2"
   inkscape:window-width="802"
   inkscape:window-height="480"
   id="namedview1089"
   showgrid="false"
   inkscape:zoom="0.47260898"
   inkscape:cx="265"
   inkscape:cy="265"
   inkscape:window-x="316"
   inkscape:window-y="143"
   inkscape:window-maximized="0"
   inkscape:current-layer="Capa_1" />
<g
   id="g1056">
	<path
   d="m 388.85,301.301 c -12.801,21.6 -27.4,39.799 -46.801,49.899 -40.199,20.601 -73.999,37.2 -73.999,37.2 l -74.4,-36.301 c -19.7,-10.1 -43.6,-28.799 -58,-50.799 -60.5,23.6 -95.5,79 -95.5,128.1 V 530 h 449.7 c 0,0 0,-49.4 0,-100.6 -0.2,-48.4 -41.6,-104 -101,-128.099 z M 141.55,223.5 c 17.9,58.9 64.1,120.1 126.4,120.1 62.3,0 108.5,-61.1 126.4,-120.1 15.3,-5.3 28.3,-20.7 33.199,-40.5 7.301,-29 -4.399,-56 -26.699,-61.7 -0.4,-0.1 -0.7,-0.2 -1.2,-0.3 C 385.65,48.3 333.549,0 267.849,0 202.15,0 150.25,48.3 136.05,121 c -0.4,0.1 -0.7,0.2 -1.2,0.2 -22.2,5.6 -33.9,32.7 -26.7,61.7 5.3,19.9 18,35.3 33.4,40.6 z m -1.3,-81.8 c 0.6,-0.2 1.4,-0.2 2.3,-0.2 0.6,0 1.2,0 1.8,0.1 l 9.9,0.8 1.5,-9.8 C 165.65,65.9 210.85,21 268.25,21 c 57.4,0 102.5,44.9 112.5,111.6 l 1.5,9.8 9.9,-0.8 c 1.5,-0.1 3,-0.1 4,0.2 10.3,2.6 15.7,19.5 11.5,36.2 -4,15.9 -14.4,25.4 -22.7,26.5 l -6.9,0.9 -1.8,6.7 c -15,54.9 -56.8,110.6 -107.8,110.6 -51,0 -92.9,-55.7 -107.9,-110.6 l -1.8,-6.7 -6.9,-0.9 c -8.2,-1.2 -18.7,-10.5 -22.7,-26.5 -4.6,-16.8 0.7,-33.7 11.1,-36.3 z m 99.4,56.4 c 4.3,-4.8 7.1,-11.2 7.9,-17.6 12,-7.7 27.299,-7.9 39.5,-0.7 0.399,0.2 0.699,0.5 1.199,0.7 0.2,6.4 3.1,12.8 7.5,17.6 16.2,18.1 73.4,11.9 73.4,-18.4 0,-27.2 -67.9,-41.2 -79.6,-15 -0.601,1.4 -0.801,2 -1.4,4.2 -13.2,-6.1 -28.4,-5.9 -41.3,0.5 -0.4,-1.6 -0.7,-3.3 -1.4,-4.8 -11.8,-26.2 -79.5,-12.2 -79.5,15 -0.099,30.4 57.301,36.6 73.701,18.5 z m 72.3,36.6 c -16.5,-16.5 -45,-15 -45.2,-14.9 -2.6,-0.1 -29.2,-0.8 -45,15 -16.5,16.5 -14.9,45.2 -14.9,45.2 0,0 28.6,1.7 45.2,-14.9 11.4,-11.399 14.2,-28.5 14.799,-38.1 0.601,9.6 3.4,26.7 14.801,38.1 16.5,16.5 45.2,14.9 45.2,14.9 0,0 1.6,-28.6 -14.9,-45.3 z"
   id="path1054" />
</g>
<g
   id="g1058">
</g>
<g
   id="g1060">
</g>
<g
   id="g1062">
</g>
<g
   id="g1064">
</g>
<g
   id="g1066">
</g>
<g
   id="g1068">
</g>
<g
   id="g1070">
</g>
<g
   id="g1072">
</g>
<g
   id="g1074">
</g>
<g
   id="g1076">
</g>
<g
   id="g1078">
</g>
<g
   id="g1080">
</g>
<g
   id="g1082">
</g>
<g
   id="g1084">
</g>
<g
   id="g1086">
</g>
</svg>
