<?xml version="1.0" encoding="UTF-8" standalone="no"?>
<svg
   xmlns:dc="http://purl.org/dc/elements/1.1/"
   xmlns:cc="http://creativecommons.org/ns#"
   xmlns:rdf="http://www.w3.org/1999/02/22-rdf-syntax-ns#"
   xmlns:svg="http://www.w3.org/2000/svg"
   xmlns="http://www.w3.org/2000/svg"
   xmlns:sodipodi="http://sodipodi.sourceforge.net/DTD/sodipodi-0.dtd"
   xmlns:inkscape="http://www.inkscape.org/namespaces/inkscape"
   version="1.1"
   id="Capa_1"
   x="0px"
   y="0px"
   viewBox="0 0 534 534"
   xml:space="preserve"
   sodipodi:docname="manager-avatar.svg"
   width="534"
   height="534"
   inkscape:version="1.0.2 (e86c870879, 2021-01-15, custom)"><metadata
   id="metadata1208"><rdf:RDF><cc:Work
       rdf:about=""><dc:format>image/svg+xml</dc:format><dc:type
         rdf:resource="http://purl.org/dc/dcmitype/StillImage" /><dc:title></dc:title></cc:Work></rdf:RDF></metadata><defs
   id="defs1206" /><sodipodi:namedview
   pagecolor="#ffffff"
   bordercolor="#666666"
   borderopacity="1"
   objecttolerance="10"
   gridtolerance="10"
   guidetolerance="10"
   inkscape:pageopacity="0"
   inkscape:pageshadow="2"
   inkscape:window-width="1858"
   inkscape:window-height="1057"
   id="namedview1204"
   showgrid="false"
   inkscape:zoom="1.0122059"
   inkscape:cx="128.76484"
   inkscape:cy="239.31729"
   inkscape:window-x="54"
   inkscape:window-y="-8"
   inkscape:window-maximized="1"
   inkscape:current-layer="Capa_1" />
<path
   d="m 407.32693,157.98608 c -3.26441,-4.48905 -7.22158,-7.549 -10.9065,-9.61939 -0.0189,-5.57228 -0.4313,-13.45273 -1.91929,-22.54131 1.00547,-10.84433 4.51787,-70.556586 -36.48529,-97.478862 C 332.72549,11.740164 304.5643,2.9638237 276.57831,2.9638237 c -22.74568,0 -44.40773,5.7596234 -60.9993,16.2172553 -14.94186,9.420034 -23.1716,19.666304 -27.52773,26.879043 -12.88509,0.405912 -39.57987,5.087107 -51.38671,35.415199 -11.17067,28.687629 -2.15111,46.410839 4.48283,54.625149 -0.434,4.75085 -0.59034,8.92766 -0.60113,12.26382 -3.68492,2.07039 -7.64209,5.13034 -10.9065,9.61939 -7.38601,10.1574 -8.64217,23.77826 -3.73613,40.49269 9.17321,31.25281 30.57917,38.13169 42.00054,39.51275 7.03558,12.53282 22.49769,38.1461 37.97057,51.01518 6.18107,5.13995 14.21673,9.47768 23.88325,12.8979 12.33787,4.36175 25.36853,6.57385 38.72535,6.57385 13.35682,0 26.38748,-2.2121 38.72535,-6.57385 9.66652,-3.42022 17.70218,-7.75795 23.88325,-12.8979 15.47288,-12.86908 30.93499,-38.48236 37.97057,-51.01518 11.41867,-1.38106 32.82463,-8.26235 42.00054,-39.51515 4.90604,-16.70963 3.64988,-30.33289 -3.73613,-40.48789 z m -22.34404,34.41363 c -5.59073,19.05143 -15.58341,21.89521 -21.04475,21.89521 -0.38817,0 -0.6793,-0.0192 -0.85182,-0.0312 -6.23767,-1.40508 -12.00631,1.51556 -14.73429,6.74438 -5.33733,10.22225 -22.15264,39.21251 -35.65234,50.44114 -3.71187,3.08637 -8.90634,5.82447 -15.43515,8.13264 -18.31947,6.47778 -39.24561,6.47778 -57.56238,0 -6.52881,-2.30817 -11.72328,-5.04627 -15.43515,-8.13264 -13.4997,-11.22863 -30.31501,-40.21889 -35.65234,-50.44114 -2.26972,-4.34734 -6.63394,-7.09265 -11.62893,-7.09265 -1.01356,0 -2.05407,0.11289 -3.10806,0.35067 -0.17252,0.0144 -0.46365,0.0312 -0.84912,0.0312 -5.45864,0 -15.45133,-2.84618 -21.04475,-21.89281 -2.75223,-9.3744 -2.72797,-16.85134 0.0647,-21.04977 1.62546,-2.44027 3.93291,-3.2617 4.68769,-3.47306 7.23236,-0.69894 11.58849,-6.34087 10.98467,-12.84267 -0.0135,-0.15852 -0.48521,-5.7404 0.11322,-14.23573 9.27565,-3.55233 24.09619,-10.55851 36.59042,-22.58214 6.35898,-6.1223 11.01163,-13.62327 14.32455,-20.504546 9.03304,6.571446 21.82109,14.293376 38.74153,20.965696 28.98067,11.42798 86.89888,16.86335 111.3482,18.71998 1.01086,10.36876 0.42052,17.4446 0.40434,17.61273 -0.63617,6.521 3.72805,12.16774 10.98467,12.86668 0.75478,0.21136 3.06224,1.03519 4.6877,3.47306 2.79536,4.19603 2.81962,11.67297 0.0674,21.04497 z m 86.43253,160.39278 -117.83926,-41.99625 c -3.3911,-1.20573 -7.18385,-1.13608 -10.52103,0.19214 -3.33179,1.33303 -5.9169,3.81413 -7.15688,6.87408 l -29.62223,72.97285 -5.86568,-15.02594 9.33225,-20.32682 c 1.69825,-3.70364 1.21842,-7.91888 -1.28581,-11.24303 -2.50424,-3.32175 -6.69863,-5.31528 -11.18954,-5.31528 h -57.56508 c -4.49091,0 -8.688,1.99353 -11.18954,5.31528 -2.50424,3.32415 -2.98406,7.53939 -1.28582,11.24303 l 9.33226,20.32682 -5.86568,15.02594 -29.62223,-72.97285 c -1.23999,-3.05995 -3.82509,-5.54346 -7.15689,-6.87408 -3.33718,-1.33062 -7.13262,-1.40027 -10.52102,-0.19214 L 65.551283,352.79249 C 29.365208,365.68799 5.9833525,396.46283 5.9833525,431.1911 v 84.7635 c 0,6.63389 6.0355055,12.00922 13.4781275,12.00922 h 498.04374 c 7.44262,0 13.47813,-5.37533 13.47813,-12.00922 v -84.7635 c 0,-34.72827 -23.38185,-65.50071 -59.56793,-78.39861 z m -4.09465,113.05002 c 0,6.6339 -6.03551,12.00922 -13.47813,12.00922 h -90.49215 c -7.44262,0 -13.47812,-5.37532 -13.47812,-12.00922 v -37.44476 c 0,-6.63389 6.0355,-12.00922 13.47812,-12.00922 h 90.49215 c 7.44262,0 13.47813,5.37533 13.47813,12.00922 z"
   id="path1171"
   style="stroke-width:2.5445" />
<g
   id="g1173">
</g>
<g
   id="g1175">
</g>
<g
   id="g1177">
</g>
<g
   id="g1179">
</g>
<g
   id="g1181">
</g>
<g
   id="g1183">
</g>
<g
   id="g1185">
</g>
<g
   id="g1187">
</g>
<g
   id="g1189">
</g>
<g
   id="g1191">
</g>
<g
   id="g1193">
</g>
<g
   id="g1195">
</g>
<g
   id="g1197">
</g>
<g
   id="g1199">
</g>
<g
   id="g1201">
</g>
</svg>
