<?xml version="1.0" encoding="UTF-8" standalone="no"?>
<svg
   xmlns:dc="http://purl.org/dc/elements/1.1/"
   xmlns:cc="http://creativecommons.org/ns#"
   xmlns:rdf="http://www.w3.org/1999/02/22-rdf-syntax-ns#"
   xmlns:svg="http://www.w3.org/2000/svg"
   xmlns="http://www.w3.org/2000/svg"
   xmlns:sodipodi="http://sodipodi.sourceforge.net/DTD/sodipodi-0.dtd"
   xmlns:inkscape="http://www.inkscape.org/namespaces/inkscape"
   version="1.1"
   id="Capa_1"
   x="0px"
   y="0px"
   width="534"
   height="534"
   viewBox="0 0 534 534"
   xml:space="preserve"
   sodipodi:docname="profiles-avatar.svg"
   inkscape:version="1.0.2 (e86c870879, 2021-01-15, custom)"><metadata
   id="metadata5739"><rdf:RDF><cc:Work
       rdf:about=""><dc:format>image/svg+xml</dc:format><dc:type
         rdf:resource="http://purl.org/dc/dcmitype/StillImage" /><dc:title></dc:title></cc:Work></rdf:RDF></metadata><defs
   id="defs5737" /><sodipodi:namedview
   pagecolor="#ffffff"
   bordercolor="#666666"
   borderopacity="1"
   objecttolerance="10"
   gridtolerance="10"
   guidetolerance="10"
   inkscape:pageopacity="0"
   inkscape:pageshadow="2"
   inkscape:window-width="802"
   inkscape:window-height="480"
   id="namedview5735"
   showgrid="false"
   inkscape:zoom="0.47260898"
   inkscape:cx="265"
   inkscape:cy="265"
   inkscape:window-x="62"
   inkscape:window-y="0"
   inkscape:window-maximized="0"
   inkscape:current-layer="Capa_1" />
<g
   id="g5702">
	<g
   id="g5700">
		<path
   d="m 340.5,356.4 c -22.2,11.699 -41.8,22.1 -54.601,29.1 V 530 H 494.7 c 0,0 0,-42.1 0,-94 0,-49.2 -46.3,-105.7 -105.101,-130.2 -12.699,22 -29.799,40.5 -49.099,50.6 z"
   id="path5688" />
		<path
   d="M 265,391.8 195.5,356.4 C 176,346.2 157.1,327.2 143,304.7 82.9,328.7 35.3,386 35.3,435.9 v 94 H 265 Z m -28.8,121.7 c -8.6,0 -15.6,-7 -15.6,-15.6 0,-8.601 7,-15.601 15.6,-15.601 8.6,0 15.6,7 15.6,15.601 0.1,8.6 -6.9,15.6 -15.6,15.6 z m 0,-41.7 c -8.6,0 -15.6,-7 -15.6,-15.6 0,-8.601 7,-15.601 15.6,-15.601 8.6,0 15.6,7 15.6,15.601 0,8.6 -6.9,15.6 -15.6,15.6 z m 0,-41.8 c -8.6,0 -15.6,-7 -15.6,-15.6 0,-8.601 7,-15.601 15.6,-15.601 8.6,0 15.6,7 15.6,15.601 0.2,8.5 -6.9,15.6 -15.6,15.6 z"
   id="path5690" />
		<path
   d="m 140.2,231.2 c 18,58.399 64.1,119 126.5,119 62.399,0 108.5,-60.5 126.5,-119 15.399,-5.3 28.3,-20.6 33.3,-40.1 4,-16.1 2.2,-32.2 -5.1,-44.4 -5.2,-8.8 -12.7,-14.5 -21.7,-16.7 -0.4,-0.1 -0.8,-0.2 -1.2,-0.2 C 383.9,54 329.5,0 266.601,0 203.7,0 149.3,54 134.7,129.7 c -0.4,0.1 -0.8,0.1 -1.2,0.2 -9,2.2 -16.5,8 -21.7,16.7 -7.3,12.1 -9.1,28.3 -5.1,44.4 5.3,19.6 18.2,34.9 33.5,40.2 z M 130,157.4 c 1.6,-2.7 4.5,-6.1 8.9,-7.2 0.7,-0.1 1.3,-0.2 2.2,-0.2 0.6,0 1.1,0 1.8,0.1 l 9.8,0.9 1.5,-9.8 C 164.8,71.4 212.1,20.8 266.899,20.8 321.7,20.8 369,71.5 379.6,141.2 l 1.5,9.8 9.801,-0.9 c 1.5,-0.1 2.899,-0.1 4,0.1 4.399,1.1 7.199,4.5 8.8,7.2 4.399,7.3 5.399,18 2.7,28.5 -4,15.7 -14.5,25.2 -22.7,26.3 l -6.9,0.9 -1.8,6.6 c -14.9,54.5 -57,109.5 -108.101,109.5 -51.1,0 -93.1,-55.2 -108.1,-109.5 l -1.8,-6.6 -6.9,-0.9 c -8.3,-1.1 -18.8,-10.4 -22.7,-26.3 -2.8,-10.5 -1.8,-21.2 2.6,-28.5 z"
   id="path5692" />
		<path
   d="m 223.9,60.1 c 2,-0.9 4.4,-1.9 6.9,-2.2 2.4,-0.4 4.9,-1 7.3,-1.7 2.2,-0.9 5.4,-0.8 8.1,-1.3 2.8,-0.3 5.6,-1.3 8.6,-1.1 2.9,0 6,-0.3 8.9,-0.6 2.9,0.2 6,0.6 8.9,0.6 3,-0.2 5.699,0.8 8.6,1.1 2.8,0.6 5.8,0.3 8.199,1.5 2.601,0.8 5.201,1.3 7.5,1.9 2.501,0.4 4.601,1.3 6.501,2 1.899,0.8 3.699,1.3 5.3,1.8 3,1 5.1,1.5 5.1,1.5 0,0 -0.7,-1.7 -2.399,-4.6 -0.801,-1.5 -1.801,-3.3 -3.301,-5.1 -1.3,-2 -2.8,-4.3 -5.199,-6 -2.101,-1.9 -4.601,-3.9 -7.3,-6 -2.601,-2.2 -6.101,-3.3 -9.4,-4.8 -3.5,-1.3 -7,-3.1 -10.9,-3.4 -3.8,-0.7 -7.9,-1 -11.8,-1.5 -3.9,0.3 -8,0.8 -11.8,1.5 -3.9,0.3 -7.4,2 -10.9,3.4 -3.4,1.6 -6.6,2.5 -9.5,4.9 -2.9,2 -5.4,4.3 -7.6,6.2 -2.5,1.8 -3.7,3.9 -4.9,5.7 -1.2,1.8 -2.2,3.6 -3,4.9 -1.6,2.8 -2.4,4.6 -2.4,4.6 0,0 1.9,-0.4 5.1,-1.5 C 220,61.6 221.9,61 223.9,60.1 Z"
   id="path5694" />
		<path
   d="m 221.1,97.6 c 2.9,-1.1 6.1,-2 9.4,-2.8 3.3,-1.1 6.9,-1.5 10.4,-2.5 3.7,-0.4 7.3,-1.2 11.1,-1.5 3.8,-0.4 7.6,-0.4 11.5,-0.6 3.8,0.2 7.601,0.1 11.5,0.7 3.8,0.2 7.399,1 11.101,1.5 3.5,1 7.199,1.3 10.299,2.5 3.4,0.9 6.501,1.8 9.4,2.8 5.8,2 11,4 14.4,5.7 3.6,1.6 5.8,2.5 5.8,2.5 0,0 -1,-2 -3,-5.6 -1,-1.8 -2.4,-3.8 -4.3,-6 -1.8,-2.2 -3.9,-4.7 -6.601,-6.9 -2.6,-2.5 -5.6,-4.8 -9.199,-7 -3.4,-2.4 -7.4,-3.9 -11.601,-5.8 -4.3,-1.3 -8.8,-3.1 -13.5,-3.7 -4.699,-1.1 -9.5,-1.1 -14.4,-1.5 -4.8,0.3 -9.8,0.3 -14.4,1.5 -4.7,0.7 -9.2,2.4 -13.5,3.7 -4.2,1.9 -8.2,3.5 -11.6,5.8 -3.6,2.1 -6.6,4.5 -9.2,6.9 -2.7,2.1 -4.9,4.7 -6.7,7 -2,2.1 -3.3,4.2 -4.3,5.8 -2,3.5 -3,5.5 -3,5.5 0,0 2.2,-0.8 5.8,-2.5 3.901,-1.7 8.701,-3.3 14.601,-5.5 z"
   id="path5696" />
		<path
   d="m 214.1,232.2 c 23.6,0 40.7,-9.9 41,-23.5 7.2,-2.8 15.299,-2.8 22.5,0 0.299,13.6 17.399,23.5 40.999,23.5 23.801,0 41.101,-10 41.101,-23.8 0,-13.8 -17.3,-23.8 -41.101,-23.8 -14.199,0 -25.8,3.6 -33.1,9.4 -12.101,-5.3 -25.9,-5.3 -38.1,0 -7.3,-5.7 -19,-9.4 -33.1,-9.4 -23.8,0 -41.1,10 -41.1,23.8 C 173,222.1 190.3,232.2 214.1,232.2 Z M 342.7,208 c -0.8,2 -9.3,7.3 -24.3,7.3 -13.801,0 -22.101,-4.5 -23.8,-6.4 l 3.499,-3.5 c 3.9,-2 10.9,-4.2 20.4,-4.2 14.901,0.1 23.601,5.4 24.201,6.8 z m -128.6,-6.7 c 9.3,0 16.2,2 20.1,3.9 l 3.6,3.6 c -2.1,2.4 -10.3,6.5 -23.7,6.5 -14.9,0 -23.5,-5.3 -24.3,-6.7 0.8,-2 9.4,-7.3 24.3,-7.3 z"
   id="path5698" />
	</g>
</g>
<g
   id="g5704">
</g>
<g
   id="g5706">
</g>
<g
   id="g5708">
</g>
<g
   id="g5710">
</g>
<g
   id="g5712">
</g>
<g
   id="g5714">
</g>
<g
   id="g5716">
</g>
<g
   id="g5718">
</g>
<g
   id="g5720">
</g>
<g
   id="g5722">
</g>
<g
   id="g5724">
</g>
<g
   id="g5726">
</g>
<g
   id="g5728">
</g>
<g
   id="g5730">
</g>
<g
   id="g5732">
</g>
</svg>
