<?xml version="1.0" encoding="UTF-8" standalone="no"?>
<svg
   xmlns:dc="http://purl.org/dc/elements/1.1/"
   xmlns:cc="http://creativecommons.org/ns#"
   xmlns:rdf="http://www.w3.org/1999/02/22-rdf-syntax-ns#"
   xmlns:svg="http://www.w3.org/2000/svg"
   xmlns="http://www.w3.org/2000/svg"
   xmlns:sodipodi="http://sodipodi.sourceforge.net/DTD/sodipodi-0.dtd"
   xmlns:inkscape="http://www.inkscape.org/namespaces/inkscape"
   version="1.1"
   id="Capa_1"
   x="0px"
   y="0px"
   width="534"
   height="534"
   viewBox="0 0 534.00002 534.00002"
   xml:space="preserve"
   sodipodi:docname="woman-avatar.svg"
   inkscape:version="1.0.2 (e86c870879, 2021-01-15, custom)"><metadata
   id="metadata6802"><rdf:RDF><cc:Work
       rdf:about=""><dc:format>image/svg+xml</dc:format><dc:type
         rdf:resource="http://purl.org/dc/dcmitype/StillImage" /><dc:title></dc:title></cc:Work></rdf:RDF></metadata><defs
   id="defs6800" /><sodipodi:namedview
   pagecolor="#ffffff"
   bordercolor="#666666"
   borderopacity="1"
   objecttolerance="10"
   gridtolerance="10"
   guidetolerance="10"
   inkscape:pageopacity="0"
   inkscape:pageshadow="2"
   inkscape:window-width="802"
   inkscape:window-height="480"
   id="namedview6798"
   showgrid="false"
   inkscape:zoom="0.46592777"
   inkscape:cx="268.79999"
   inkscape:cy="268.79999"
   inkscape:window-x="62"
   inkscape:window-y="0"
   inkscape:window-maximized="0"
   inkscape:current-layer="Capa_1" />
<g
   id="g6765">
	<g
   id="g6763">
		<path
   d="m 173.2,314.4 c 21.3,3.199 47.3,-1.701 75.7,-3.4 5.3,1.199 10.6,2 16.1,2 5.6,0 11.1,-0.801 16.6,-2.1 73.9,3.6 131.5,24.5 131.5,-125.9 C 413.1,82.9 346.8,0 265,0 183.2,0 116.9,82.9 116.9,185 c 0,82.1 15.7,114 41.2,125.1 4.7,2.2 9.8,3.5 15.1,4.3 z M 149.6,127.3 c 15.5,21.5 55.7,16.9 90.4,-10.3 8.8,-6.9 16.5,-14.8 22.7,-22.8 0.8,0.1 1.6,0.2 2.4,0.4 3.4,0.6 6.5,1.8 10,2.9 3.101,1.5 6.5,2.7 9.5,4.6 3.101,1.6 5.9,3.8 8.7,5.7 2.5,2.2 5.3,4.3 7.4,6.7 2.199,2.2 4.3,4.6 5.899,6.9 1.8,2.2 3.101,4.5 4.4,6.5 1.299,2 2.399,3.8 3,5.4 1.5,3.1 2.399,4.9 2.399,4.9 0,0 -0.3,-1.9 -0.899,-5.4 -0.2,-1.8 -0.7,-3.8 -1.3,-6.2 -0.601,-2.4 -1.301,-5.2 -2.5,-8 -1,-2.9 -2.4,-5.9 -4,-9.1 -1.5,-3.2 -3.7,-6.3 -5.801,-9.7 -2.5,-3.1 -4.8,-6.5 -7.8,-9.5 -2.8,-3.2 -6.2,-5.9 -9.5,-8.8 -3.1,-2.2 -6.399,-4.6 -9.899,-6.5 1.5,-3.1 2.699,-6.3 3.699,-9.3 12.4,5.6 25.101,12.7 35.2,22.8 37.101,37.1 22.5,80.2 51.101,51.7 4.5,-4.5 8.199,-9.2 11.1,-13.9 1,0 2,-0.1 2.8,0.1 3.9,1 6.4,4 7.8,6.4 3.9,6.5 4.801,15.9 2.4,25.3 -3.6,14 -12.8,22.3 -20.2,23.2 l -6,0.8 L 361,188 c -14.2,51.5 -52.5,106.3 -95.8,106.3 -43.3,0 -81.5,-54.8 -95.8,-106.3 l -1.6,-5.9 -6,-0.8 c -7.3,-1 -16.6,-9.3 -20.2,-23.2 -2.4,-9.4 -1.5,-18.8 2.4,-25.3 0.9,-1.8 2.9,-4.1 5.6,-5.5 z"
   id="path6759" />
		<path
   d="m 376.3,327.9 c -11.6,19.799 -25.1,36.5 -42.9,45.699 -36.8,18.8 -64.199,34.2 -64.199,34.2 l -0.101,-0.1 v -0.301 l -0.3,0.2 -0.3,-0.2 v 0.301 l -0.1,0.1 c 0,0 -27.3,-15.2 -64.2,-34.2 -17.8,-9.199 -31.2,-25.9 -42.9,-45.699 -54.5,22.199 -92.5,72.999 -92.5,117.499 0,46.801 0,92.2 0,92.2 h 199.6 0.8 199.6 c 0,0 0,-45.399 0,-92.2 C 468.8,401 430.7,350.1 376.3,327.9 Z"
   id="path6761" />
	</g>
</g>
<g
   id="g6767">
</g>
<g
   id="g6769">
</g>
<g
   id="g6771">
</g>
<g
   id="g6773">
</g>
<g
   id="g6775">
</g>
<g
   id="g6777">
</g>
<g
   id="g6779">
</g>
<g
   id="g6781">
</g>
<g
   id="g6783">
</g>
<g
   id="g6785">
</g>
<g
   id="g6787">
</g>
<g
   id="g6789">
</g>
<g
   id="g6791">
</g>
<g
   id="g6793">
</g>
<g
   id="g6795">
</g>
</svg>
