<?xml version="1.0" encoding="UTF-8" standalone="no"?>
<svg
   xmlns:dc="http://purl.org/dc/elements/1.1/"
   xmlns:cc="http://creativecommons.org/ns#"
   xmlns:rdf="http://www.w3.org/1999/02/22-rdf-syntax-ns#"
   xmlns:svg="http://www.w3.org/2000/svg"
   xmlns="http://www.w3.org/2000/svg"
   xmlns:sodipodi="http://sodipodi.sourceforge.net/DTD/sodipodi-0.dtd"
   xmlns:inkscape="http://www.inkscape.org/namespaces/inkscape"
   version="1.1"
   id="Capa_1"
   x="0px"
   y="0px"
   width="534"
   height="534"
   viewBox="0 0 534 534"
   xml:space="preserve"
   sodipodi:docname="young-man-avatar.svg"
   inkscape:version="1.0.2 (e86c870879, 2021-01-15, custom)"><metadata
   id="metadata7716"><rdf:RDF><cc:Work
       rdf:about=""><dc:format>image/svg+xml</dc:format><dc:type
         rdf:resource="http://purl.org/dc/dcmitype/StillImage" /><dc:title></dc:title></cc:Work></rdf:RDF></metadata><defs
   id="defs7714" /><sodipodi:namedview
   pagecolor="#ffffff"
   bordercolor="#666666"
   borderopacity="1"
   objecttolerance="10"
   gridtolerance="10"
   guidetolerance="10"
   inkscape:pageopacity="0"
   inkscape:pageshadow="2"
   inkscape:window-width="802"
   inkscape:window-height="480"
   id="namedview7712"
   showgrid="false"
   inkscape:zoom="0.47249754"
   inkscape:cx="265.0625"
   inkscape:cy="265.0625"
   inkscape:window-x="62"
   inkscape:window-y="0"
   inkscape:window-maximized="0"
   inkscape:current-layer="Capa_1" />
<g
   id="g7679">
	<path
   d="m 385.013,317.025 c -11.5,19.7 -24.9,36.399 -42.5,45.399 -36.4,18.7 -68.7,35.9 -68.7,35.9 l -62.7,-35.9 c -17.9,-9.199 -40.4,-26.199 -53.3,-46.399 -54.8,21.7 -104.3,73.1 -104.3,117.9 v 96.199 h 423.1 c 0,0 0,-49.699 0,-96.199 -0.1,-44.199 -37.7,-94.8 -91.6,-116.9 z m 5.2,-171.5 c -1.3,-17 -5.5,-33 -12.101,-47.6 0.7,-8.8 3.101,-19.2 6.301,-29.6 6,-20.2 1.699,-25.6 -14.9,-18.9 -16.6,6.7 -39.7,-15 -47,-33.1 -7.7,-19.1 -19.4,-8.5 -27,-1.8 -11.8,10.4 -37.8,4.6 -45.7,-8 -7.9,-12.6 -20.1,-4.9 -30,5.8 -6.5,7.1 -14.4,12.4 -22.8,11.4 -16.4,-1.8 -33.9,-26.2 -33.1,-2 1.4,40.7 -12,75.4 -12,75.4 -6.7,14.8 -11.1,31.2 -12.4,48.4 -13.2,9 -19.4,28.7 -14.2,49.6 4.3,17.3 15.6,30.8 29,35.4 15.7,51.399 56,104.899 110.5,104.899 54.5,0 94.8,-53.5 110.5,-105.1 13.4,-4.6 24.7,-18.1 29,-35.4 5.499,-20.698 -0.701,-40.299 -14.1,-49.399 z m -3.401,45.1 c -3.5,13.9 -12.6,22.2 -19.8,23.1 l -6,0.8 -1.6,5.9 c -4.5,16.6 -11.9,33.2 -21.4,47.9 -18,27.9 -43.7,48.8 -72.9,48.8 -29.2,0 -54.9,-20.899 -72.9,-48.8 -9.5,-14.7 -16.9,-31.3 -21.4,-47.9 l -1.6,-5.9 -6,-0.8 c -7.2,-1 -16.3,-9.2 -19.8,-23.1 -3.7,-14.6 1,-29.4 10,-31.6 0.6,-0.2 1.2,-0.2 2,-0.2 0.6,0 1,0 1.6,0.1 l 8.7,0.7 1.3,-8.6 c 1.8,-12.4 5.2,-23.8 9.5,-34.2 2.8,-7 7.4,-18.2 13.5,-24.1 15.5,-14.8 43,-24.4 74.2,-24.4 37.7,0 70,14 82.7,33.9 l 0.1,0.2 c 8.1,13.9 13.9,30.3 16.6,48.6 l 1.301,8.6 8.699,-0.7 c 1.301,-0.1 2.601,-0.1 3.5,0.2 8.601,2.101 13.301,16.9 9.7,31.5 z"
   id="path7677" />
</g>
<g
   id="g7681">
</g>
<g
   id="g7683">
</g>
<g
   id="g7685">
</g>
<g
   id="g7687">
</g>
<g
   id="g7689">
</g>
<g
   id="g7691">
</g>
<g
   id="g7693">
</g>
<g
   id="g7695">
</g>
<g
   id="g7697">
</g>
<g
   id="g7699">
</g>
<g
   id="g7701">
</g>
<g
   id="g7703">
</g>
<g
   id="g7705">
</g>
<g
   id="g7707">
</g>
<g
   id="g7709">
</g>
</svg>
