<?xml version="1.0" encoding="UTF-8" standalone="no"?>
<svg
   xmlns:dc="http://purl.org/dc/elements/1.1/"
   xmlns:cc="http://creativecommons.org/ns#"
   xmlns:rdf="http://www.w3.org/1999/02/22-rdf-syntax-ns#"
   xmlns:svg="http://www.w3.org/2000/svg"
   xmlns="http://www.w3.org/2000/svg"
   xmlns:sodipodi="http://sodipodi.sourceforge.net/DTD/sodipodi-0.dtd"
   xmlns:inkscape="http://www.inkscape.org/namespaces/inkscape"
   version="1.1"
   id="Capa_1"
   x="0px"
   y="0px"
   viewBox="0 0 534.00001 534.00001"
   xml:space="preserve"
   sodipodi:docname="default-avatar.svg"
   width="534"
   height="534"
   inkscape:version="1.0.2 (e86c870879, 2021-01-15, custom)"><metadata
   id="metadata968"><rdf:RDF><cc:Work
       rdf:about=""><dc:format>image/svg+xml</dc:format><dc:type
         rdf:resource="http://purl.org/dc/dcmitype/StillImage" /><dc:title></dc:title></cc:Work></rdf:RDF></metadata><defs
   id="defs966" /><sodipodi:namedview
   pagecolor="#ffffff"
   bordercolor="#666666"
   borderopacity="1"
   objecttolerance="10"
   gridtolerance="10"
   guidetolerance="10"
   inkscape:pageopacity="0"
   inkscape:pageshadow="2"
   inkscape:window-width="1827"
   inkscape:window-height="1057"
   id="namedview964"
   showgrid="false"
   inkscape:zoom="1.170828"
   inkscape:cx="3.3693555"
   inkscape:cy="170.13673"
   inkscape:window-x="85"
   inkscape:window-y="1072"
   inkscape:window-maximized="1"
   inkscape:current-layer="g931" />
<g
   id="g931"
   transform="translate(187.90121,146.90458)">
	<path
   d="m 92.486876,-3.0170786 c 35.666114,0 64.682714,-31.6997934 64.682714,-70.6640164 0,-38.961395 -29.0166,-70.661195 -64.682714,-70.661195 -35.66354,0 -64.680137,31.6998 -64.680137,70.661195 0,38.964223 29.016597,70.6640164 64.680137,70.6640164 z m 0,-99.0738314 c 14.340704,0 26.007674,12.745822 26.007674,28.409815 0,15.666811 -11.66697,28.412643 -26.007674,28.412643 -14.3407,0 -26.0051,-12.745832 -26.0051,-28.412643 0,-15.663993 11.66697,-28.409815 26.0051,-28.409815 z"
   id="path927"
   style="stroke-width:2.69491" />
	<path
   d="M 167.72529,29.620703 C 159.94388,19.984576 148.74101,14.455276 136.97864,14.455276 H 47.961596 c -11.75206,0 -22.947195,5.518032 -30.726035,15.140076 C 9.4567205,39.217396 5.8315795,52.042101 7.2857615,64.779476 L 41.706548,366.35572 c 1.206661,10.57412 9.434128,18.51174 19.187978,18.51174 h 62.777324 c 9.74353,0 17.96842,-7.92073 19.18539,-18.48357 L 177.64931,64.841445 c 1.46965,-12.745829 -2.14518,-25.584616 -9.92402,-35.220742 z M 106.61615,342.61608 H 77.970846 L 45.661716,59.551577 c -0.08509,-0.752072 0.103133,-1.41965 0.56208,-1.988629 0.46152,-0.56899 1.04422,-0.856299 1.7378,-0.856299 h 89.017044 c 0.69357,0 1.27627,0.290124 1.7378,0.856299 0.45894,0.568979 0.64716,1.236557 0.55949,1.991444 z"
   id="path929"
   style="stroke-width:2.69491" />
</g>
<g
   id="g933">
</g>
<g
   id="g935">
</g>
<g
   id="g937">
</g>
<g
   id="g939">
</g>
<g
   id="g941">
</g>
<g
   id="g943">
</g>
<g
   id="g945">
</g>
<g
   id="g947">
</g>
<g
   id="g949">
</g>
<g
   id="g951">
</g>
<g
   id="g953">
</g>
<g
   id="g955">
</g>
<g
   id="g957">
</g>
<g
   id="g959">
</g>
<g
   id="g961">
</g>
</svg>
