<?xml version="1.0" encoding="UTF-8" standalone="no"?>
<svg
   xmlns:dc="http://purl.org/dc/elements/1.1/"
   xmlns:cc="http://creativecommons.org/ns#"
   xmlns:rdf="http://www.w3.org/1999/02/22-rdf-syntax-ns#"
   xmlns:svg="http://www.w3.org/2000/svg"
   xmlns="http://www.w3.org/2000/svg"
   xmlns:sodipodi="http://sodipodi.sourceforge.net/DTD/sodipodi-0.dtd"
   xmlns:inkscape="http://www.inkscape.org/namespaces/inkscape"
   version="1.1"
   id="Capa_1"
   x="0px"
   y="0px"
   width="534"
   height="534"
   viewBox="0 0 534.00003 534.00003"
   xml:space="preserve"
   sodipodi:docname="man-with-mustache-avatar.svg"
   inkscape:version="1.0.2 (e86c870879, 2021-01-15, custom)"><metadata
   id="metadata1999"><rdf:RDF><cc:Work
       rdf:about=""><dc:format>image/svg+xml</dc:format><dc:type
         rdf:resource="http://purl.org/dc/dcmitype/StillImage" /><dc:title></dc:title></cc:Work></rdf:RDF></metadata><defs
   id="defs1997" /><sodipodi:namedview
   pagecolor="#ffffff"
   bordercolor="#666666"
   borderopacity="1"
   objecttolerance="10"
   gridtolerance="10"
   guidetolerance="10"
   inkscape:pageopacity="0"
   inkscape:pageshadow="2"
   inkscape:window-width="802"
   inkscape:window-height="480"
   id="namedview1995"
   showgrid="false"
   inkscape:zoom="0.47021446"
   inkscape:cx="266.34949"
   inkscape:cy="266.34949"
   inkscape:window-x="62"
   inkscape:window-y="0"
   inkscape:window-maximized="0"
   inkscape:current-layer="Capa_1" />
<g
   id="g1962">
	<g
   id="g1960">
		<path
   d="m 113.299,196.3 c 4.8,18.9 17.1,33.7 31.8,38.8 17.2,56.4 61.4,115.099 121.2,115.099 59.8,0 103.901,-58.599 121.201,-115.099 14.7,-5 27,-19.8 31.8,-38.9 6.8,-27.1 -3.8,-52.3 -24.1,-58.5 4.5,-6.5 9.5,-13.1 9.5,-20.5 0,-11.2 -11.4,-20.3 -15.101,-30.5 -3.7,-10.2 -0.899,-24.4 -7.8,-33.2 -6.6,-8.4 -21.3,-9.1 -30.4,-15.7 C 342.799,31.5 338,17.8 327.7,13.3 317.8,9.2 304.5,15.1 293.5,12.9 283.1,10.9 273,0 261.8,0 c -11.2,0 -21.3,10.6 -31.7,12.8 -11,2.1 -24.3,-3.8 -34.2,0.4 -10.3,4.5 -15.1,18.3 -23.7,24.6 -9.1,6.6 -23.6,7.4 -30.4,15.7 -6.9,8.7 -4,23 -7.8,33.2 -3.7,10.2 -15.1,19.3 -15.1,30.5 0,8.6 6.7,16 11.5,23.5 -15.501,9.4 -23.001,31.7 -17.101,55.6 z m 286.5,-4.9 c -3.8,15.2 -13.8,24.3 -21.7,25.4 l -6.6,0.9 -1.8,6.4 c -14.4,52.599 -54.5,106 -103.4,106 -48.9,0 -89,-53.3 -103.4,-106.1 l -1.8,-6.4 -6.6,-0.9 c -7.8,-1.1 -17.9,-10.1 -21.7,-25.4 -2.8,-11.3 -1,-22.6 3.7,-29.2 2,-2.7 4.4,-4.7 7.3,-5.5 0.7,-0.1 1.3,-0.2 2.1,-0.2 0.6,0 1.1,0 1.7,0.1 l 9.4,0.9 1.5,-9.4 c 3.7,-24.6 12.4,-46.3 24.9,-63.4 2.1,4.9 1.3,14 6.4,17 4.7,2.9 14.3,-3.1 20.4,-1 5.3,2 8.4,12.9 14.6,14.2 5.6,1.2 13.1,-7.4 19.3,-6.7 5.8,0.6 11.3,10.5 17.4,10.5 6.199,0 11.6,-10 17.5,-10.5 6.199,-0.7 13.6,8 19.3,6.7 6.2,-1.3 9.2,-12.2 14.6,-14.2 6,-2.2 15.7,3.8 20.4,1 5.6,-3.5 3.9,-14.4 7.3,-18.7 1.101,-1.5 2.9,-2.7 4.7,-3.8 14.7,17.9 25.1,41.4 29.1,68.9 l 1.5,9.4 9.4,-0.9 c 1,-0.1 1.9,0 2.7,0.1 0.3,0 0.8,0 1.1,0 9.601,2.5 14.601,18.7 10.7,34.8 z"
   id="path1954" />
		<path
   d="m 267.9,235.3 c -38.301,0 -69.201,33.8 -69.201,33.8 0,9.6 31,0 69.201,0 38.199,0 69.199,9.6 69.199,0 0.101,0 -30.899,-33.8 -69.199,-33.8 z"
   id="path1956" />
		<path
   d="m 378.099,314.9 c -12.1,20.6 -26.1,38 -44.6,47.5 -38.2,19.6 -66.6,35.4 -66.6,35.4 l -0.1,-0.102 V 397.3 l -0.5,0.1 -0.4,-0.201 v 0.4 l -0.1,0.1 c 0,0 -28.4,-15.899 -66.6,-35.399 -18.5,-9.5 -32.5,-26.899 -44.6,-47.5 -56.7,23 -96.1,75.899 -96.1,122.101 0,48.6 0,95.799 0,95.799 h 207.4 0.8 207.5 c 0,0 0,-47.199 0,-95.799 10e-4,-46.1 -39.6,-98.901 -96.1,-122.001 z"
   id="path1958" />
	</g>
</g>
<g
   id="g1964">
</g>
<g
   id="g1966">
</g>
<g
   id="g1968">
</g>
<g
   id="g1970">
</g>
<g
   id="g1972">
</g>
<g
   id="g1974">
</g>
<g
   id="g1976">
</g>
<g
   id="g1978">
</g>
<g
   id="g1980">
</g>
<g
   id="g1982">
</g>
<g
   id="g1984">
</g>
<g
   id="g1986">
</g>
<g
   id="g1988">
</g>
<g
   id="g1990">
</g>
<g
   id="g1992">
</g>
</svg>
