<?xml version="1.0" encoding="UTF-8" standalone="no"?>
<svg
   xmlns:dc="http://purl.org/dc/elements/1.1/"
   xmlns:cc="http://creativecommons.org/ns#"
   xmlns:rdf="http://www.w3.org/1999/02/22-rdf-syntax-ns#"
   xmlns:svg="http://www.w3.org/2000/svg"
   xmlns="http://www.w3.org/2000/svg"
   xmlns:sodipodi="http://sodipodi.sourceforge.net/DTD/sodipodi-0.dtd"
   xmlns:inkscape="http://www.inkscape.org/namespaces/inkscape"
   version="1.1"
   id="Capa_1"
   x="0px"
   y="0px"
   width="534"
   height="534"
   viewBox="0 0 534 534"
   xml:space="preserve"
   sodipodi:docname="nerd-man-with-curly-hair-and-circular-eyeglasses-avatar.svg"
   inkscape:version="1.0.2 (e86c870879, 2021-01-15, custom)"><metadata
   id="metadata4823"><rdf:RDF><cc:Work
       rdf:about=""><dc:format>image/svg+xml</dc:format><dc:type
         rdf:resource="http://purl.org/dc/dcmitype/StillImage" /><dc:title></dc:title></cc:Work></rdf:RDF></metadata><defs
   id="defs4821" /><sodipodi:namedview
   pagecolor="#ffffff"
   bordercolor="#666666"
   borderopacity="1"
   objecttolerance="10"
   gridtolerance="10"
   guidetolerance="10"
   inkscape:pageopacity="0"
   inkscape:pageshadow="2"
   inkscape:window-width="802"
   inkscape:window-height="480"
   id="namedview4819"
   showgrid="false"
   inkscape:zoom="0.47077473"
   inkscape:cx="266.0325"
   inkscape:cy="266.0325"
   inkscape:window-x="62"
   inkscape:window-y="0"
   inkscape:window-maximized="0"
   inkscape:current-layer="Capa_1" />
<g
   id="g4786">
	<path
   d="m 79.883,147.265 c 0,7.8 8,14.8 9.4,22.3 1.5,7.6 -3.1,17 -0.3,24.2 2.9,7.2 12.8,10.8 16.9,17.2 4,6.5 2.9,16.9 8.1,22.8 4.8,5.5 14.6,5.9 20.7,10.4 1.3,1.6 2.7,3 4.1,4.4 3.6,5.3 5.9,12.4 11.2,15.7 1.8,1.1 3.8,1.7 5.9,2.1 17.8,49.801 57.6,98.601 110.2,98.601 55.1,0 96.1,-53.4 112.6,-105.601 0.6,-0.8 1,-1.6 1.5,-2.4 8.3,-3.1 15.8,-9.5 21.3,-18.1 3.2,-1.2 6.3,-2.6 8.4,-5 5.199,-5.8 4,-16.4 8.1,-22.8 4.1,-6.6 14.1,-10.2 16.9,-17.4 2.899,-7.2 -1.801,-16.6 -0.301,-24.2 1.5,-7.5 9.4,-14.4 9.4,-22.3 0,-7.9 -8,-14.8 -9.4,-22.3 -1.5,-7.6 3.101,-17 0.301,-24.2 -2.9,-7.2 -12.801,-10.8 -16.9,-17.2 -4,-6.5 -2.9,-16.9 -8.1,-22.8 -5,-5.7 -15.601,-5.9 -21.601,-11 -5.8,-4.9 -7.7,-15.3 -14.3,-19.5 -6.4,-4 -16.7,-1.5 -23.7,-4.8 -6.8,-3.2 -11.3,-12.9 -18.8,-15.3 -7.2,-2.5 -16.6,2.5 -24.2,0.8 -7.399,-1.6 -13.899,-10 -21.7,-10.8 -7.6,-0.8 -15.699,6 -23.5,6 -7.801,0 -15.9,-6.8 -23.5,-6 -7.8,0.8 -14.3,9.2 -21.7,10.8 -7.6,1.7 -17,-3.2 -24.2,-0.8 -7.4,2.5 -11.9,12.1 -18.8,15.3 -7.1,3.4 -17.4,0.8 -23.7,4.8 -6.6,4.3 -8.6,14.6 -14.3,19.5 -5.9,5 -16.6,5.3 -21.6,11 -5.2,5.8 -4,16.4 -8.1,22.8 -4.1,6.6 -14.1,10.2 -16.9,17.4 -2.9,7.2 1.8,16.6 0.3,24.2 -1.799,7.4 -9.699,14.3 -9.699,22.2 z m 283,99.901 c -1.9,6.9 -4.301,13.8 -7.101,20.6 -17.1,41.7 -50.3,78.5 -89.6,78.5 -37.6,0 -69.8,-33.8 -87.4,-73.4 -3.8,-8.4 -6.9,-17.1 -9.3,-25.9 l -1.7,-6 -6.2,-0.8 c -7.4,-1 -16.7,-9.5 -20.3,-23.7 -3.8,-15 1,-30.1 10.3,-32.5 0.6,-0.1 1.2,-0.2 2,-0.2 0.6,0 1,0 1.6,0.1 l 8.8,0.8 1.3,-8.7 c 2.5,-16.2 7.3,-31 13.9,-43.9 2.4,-0.6 4.8,-0.8 7.1,-0.4 8,1.6 14.6,14.4 23.5,15.5 8.2,0.9 17.7,-10 26.4,-9.5 8.3,0.4 16.6,12.4 25.3,12.4 8.7,0 16.9,-12 25.3,-12.4 8.8,-0.4 18.4,10.5 26.4,9.5 8.8,-1 15.6,-13.9 23.5,-15.5 5.7,-1.1 12.3,2.2 18.3,4.3 5.7,12 9.7,25.4 12,40.1 l 1.3,8.7 8.8,-0.8 c 1.301,-0.1 2.601,-0.1 3.601,0.1 9.2,2.4 14,17.5 10.3,32.5 -3.6,14.2 -12.9,22.7 -20.3,23.7 l -6.2,0.8 z m -53.4,-61.401 c -15.8,0 -29.2,9.7 -34.8,23.6 -9.5,-4 -20.3,-4.3 -29.8,-0.4 -5.7,-13.6 -19.2,-23.1 -34.7,-23.1 -20.7,0 -37.6,16.9 -37.6,37.6 0,20.7 16.9,37.6 37.6,37.6 19.2,0 34.9,-14.6 37.2,-33.2 7.6,-5.3 17.8,-4.9 25.1,1 2.7,18.1 18.3,32 37.1,32 20.7,0 37.601,-16.9 37.601,-37.6 -0.001,-20.7 -16.901,-37.5 -37.701,-37.5 z m -99.4,57.2 c -10.8,0 -19.6,-8.7 -19.6,-19.6 0,-10.8 8.7,-19.6 19.6,-19.6 10.8,0 19.6,8.7 19.6,19.6 0,10.801 -8.8,19.6 -19.6,19.6 z m 99.4,0 c -10.8,0 -19.6,-8.7 -19.6,-19.6 0,-10.8 8.699,-19.6 19.6,-19.6 10.8,0 19.6,8.7 19.6,19.6 0,10.801 -8.8,19.6 -19.6,19.6 z m 61.7,84.201 c -11.4,19.399 -24.5,35.699 -42,44.699 -36,18.4 -62.7,33.4 -62.7,33.4 l -0.1,-0.1 v -0.3 l -0.4,0.1 -0.3,-0.2 v 0.3 l -0.1,0.101 c 0,0 -26.8,-14.9 -62.7,-33.4 -17.5,-9 -30.6,-25.3 -42,-44.7 -53.3,21.601 -90.4,71.5 -90.4,114.801 0,45.8 0,90.199 0,90.199 h 195.1 0.8 195.2 c 0,0 0,-44.399 0,-90.199 0,-43.302 -37.2,-93.101 -90.4,-114.701 z"
   id="path4784" />
</g>
<g
   id="g4788">
</g>
<g
   id="g4790">
</g>
<g
   id="g4792">
</g>
<g
   id="g4794">
</g>
<g
   id="g4796">
</g>
<g
   id="g4798">
</g>
<g
   id="g4800">
</g>
<g
   id="g4802">
</g>
<g
   id="g4804">
</g>
<g
   id="g4806">
</g>
<g
   id="g4808">
</g>
<g
   id="g4810">
</g>
<g
   id="g4812">
</g>
<g
   id="g4814">
</g>
<g
   id="g4816">
</g>
</svg>
